<?xml version="1.0" encoding="UTF-8"?>
<svg version="1.1" xmlns="http://www.w3.org/2000/svg" width="250" height="246">
<path d="M0 0 C0.89275635 0.18739746 1.7855127 0.37479492 2.70532227 0.56787109 C3.497854 0.74592285 4.29038574 0.92397461 5.10693359 1.10742188 C7.78456177 1.27768426 8.99749837 0.5344506 11.31079102 -0.75244141 C15.79720659 -1.3340138 17.74667868 -1.10368116 21.62329102 1.31005859 C24.31079102 4.24755859 24.31079102 4.24755859 24.99829102 7.56005859 C27.10854047 13.48885467 32.24830338 15.8105772 37.31079102 19.24755859 C55.08344132 32.50447198 66.05680619 54.59168075 69.83813477 76.07958984 C73.2600949 102.55270456 67.15259575 128.33999508 50.77172852 149.60302734 C35.28126601 168.99653165 13.97112744 181.67818447 -10.68920898 185.24755859 C-38.24924914 187.30865329 -63.36921596 181.78665542 -84.81420898 163.64599609 C-103.23607234 147.55837071 -116.19453109 125.26440121 -117.8737793 100.52880859 C-119.17801421 72.30478971 -111.81517668 48.59347928 -93.37670898 26.93505859 C-68.9863951 1.17786197 -34.14057535 -7.44642949 0 0 Z M-77.68920898 25.24755859 C-78.42397461 25.79927734 -79.15874023 26.35099609 -79.91577148 26.91943359 C-96.82323629 40.52623794 -106.19218475 62.12786766 -108.68920898 83.24755859 C-109.98321011 106.53957878 -103.7770568 128.87191064 -88.18920898 146.49755859 C-86.6952586 148.08660129 -85.19574657 149.67044447 -83.68920898 151.24755859 C-83.1490918 151.86244141 -82.60897461 152.47732422 -82.05249023 153.11083984 C-68.64069403 167.80638481 -47.31293633 175.48847185 -27.89624023 176.56396484 C-2.82300212 177.42403522 17.70309856 168.73315701 36.42016602 152.40771484 C50.90538618 138.78776225 60.85311876 116.58625768 61.51391602 96.77880859 C61.91092283 71.31221237 54.12919337 49.49118512 36.72924805 30.70019531 C32.00354405 25.86061893 26.85200364 21.29305485 20.31079102 19.24755859 C19.65079102 19.57755859 18.99079102 19.90755859 18.31079102 20.24755859 C11.22659359 20.9443649 11.22659359 20.9443649 7.43579102 18.06005859 C5.31079102 15.24755859 5.31079102 15.24755859 4.53344727 12.68115234 C3.51790659 10.00974509 3.51790659 10.00974509 0.73657227 9.13818359 C-0.29081055 8.92677734 -1.31819336 8.71537109 -2.37670898 8.49755859 C-3.89844727 8.16498047 -3.89844727 8.16498047 -5.45092773 7.82568359 C-31.95102444 3.09466512 -56.44514495 8.70456195 -77.68920898 25.24755859 Z " fill="#5BCBEE" transform="translate(148.689208984375,29.75244140625)"/>
<path d="M0 0 C15.64134836 12.39862979 26.32800881 29.08921231 29 49 C31.03646187 71.97263468 24.64031486 91.85524893 9.91015625 109.50390625 C-2.08247501 122.34517808 -19.77338385 131.69498169 -37.453125 132.30078125 C-58.52374705 132.51698259 -77.00388727 128.56733373 -93 114 C-93.75667969 113.32324219 -94.51335937 112.64648438 -95.29296875 111.94921875 C-107.9975105 99.96821874 -116.18164002 82.99337519 -117.20654297 65.46826172 C-117.22264344 61.93250037 -117.16610273 58.40922142 -117.0625 54.875 C-117.00268334 52.49760599 -116.95147431 50.11997494 -116.91015625 47.7421875 C-116.88058838 46.7094873 -116.85102051 45.67678711 -116.82055664 44.61279297 C-116.799052 41.76366971 -116.799052 41.76366971 -119 39 C-119.72022276 34.52791917 -119.58211165 31.01330547 -117.3125 27.0625 C-113.98892647 24.09823172 -111.44793499 23 -107 23 C-106.74347656 22.27425781 -106.48695312 21.54851562 -106.22265625 20.80078125 C-100.43767482 7.54892283 -86.82157193 -2.18797985 -74 -8 C-48.87713194 -17.80347541 -22.3614083 -15.7676597 0 0 Z M-94.37890625 18.859375 C-96.12060339 21.1592546 -97.63074231 23.46011151 -99 26 C-98.71447643 27.89667109 -98.71447643 27.89667109 -98 30 C-97.73313106 34.20318586 -97.59455072 36.96385185 -99.125 40.875 C-101.49117731 43.55666761 -103.57101416 44.16180346 -107 45 C-110.50881141 63.54249932 -106.93798405 80.75772879 -96.41015625 96.35546875 C-88.04282207 107.79410677 -77.83454801 114.53747452 -65 120 C-63.64648438 120.57621094 -63.64648438 120.57621094 -62.265625 121.1640625 C-47.58263603 126.16750141 -30.02255961 123.79241722 -16.125 117.75 C0.55612337 109.40943832 11.72233849 95.69090169 17.75 78.1875 C23.07388045 61.68966116 20.49951782 43.63649284 12.9375 28.3125 C4.21483831 13.15967103 -9.60653127 1.60927891 -26.609375 -2.97265625 C-52.53965952 -8.66144316 -76.87418041 -1.46869372 -94.37890625 18.859375 Z " fill="#5ECCEF" transform="translate(169,62)"/>
<path d="M0 0 C9.58219153 7.8883698 16.91928208 19.78242541 18.6328125 32.22265625 C18.68663134 36.45546053 18.55897887 40.68766517 18.41796875 44.91796875 C18.33452025 50.00074107 18.5596667 52.97727958 21.6328125 57.22265625 C22.03290611 60.95686324 21.92490782 63.46664482 20.5703125 66.97265625 C17.98062175 69.98003906 15.32374117 70.86284043 11.6328125 72.22265625 C8.35272584 73.60041905 6.69035345 75.11891669 4.5078125 77.91015625 C-4.29440133 88.18250728 -16.36975996 93.66502528 -29.7421875 95.22265625 C-44.60312939 95.81999009 -58.35452483 91.6685295 -69.6796875 81.91015625 C-80.43900822 71.54741306 -87.3314925 59.56820276 -87.65966797 44.36865234 C-87.78638143 27.62084086 -83.16997508 14.7471387 -71.625 2.32421875 C-51.34618628 -16.55121685 -21.52848117 -16.16412365 0 0 Z M-70.609375 14.75 C-78.35262717 25.64217472 -79.43107369 37.25889862 -78.3671875 50.22265625 C-75.86499161 62.34758261 -68.17487492 71.98264665 -58.3671875 79.22265625 C-47.06105434 85.51216079 -34.76107499 87.16125332 -22.0546875 84.5390625 C-15.86935948 82.42164197 -10.54012337 79.18255871 -5.3671875 75.22265625 C-4.74328125 74.80628906 -4.119375 74.38992187 -3.4765625 73.9609375 C-1.54744382 72.46001105 -0.4799039 71.41331667 0.6328125 69.22265625 C0.83665042 65.85933058 0.6920991 62.59454308 0.52734375 59.23046875 C0.6328125 56.22265625 0.6328125 56.22265625 2.8828125 53.03515625 C5.10501354 51.57052375 7.24834855 50.37922317 9.6328125 49.22265625 C10.33622819 33.82566842 8.28662058 22.17754886 -2.3671875 10.22265625 C-12.62961193 0.58708148 -23.71995233 -3.34024803 -37.70703125 -3.0859375 C-51.31800714 -1.9383739 -61.88381319 4.45242402 -70.609375 14.75 Z " fill="#59CBEE" transform="translate(159.3671875,79.77734375)"/>
<path d="M0 0 C2.86328125 -0.46875 2.86328125 -0.46875 6 0 C8.16796875 1.96875 8.16796875 1.96875 10.1875 4.5 C13.39831158 8.08340418 13.39831158 8.08340418 17.84765625 9.421875 C19.74768167 9.30935667 21.6465039 9.17351505 23.54296875 9.01171875 C26 9 26 9 29.0625 11.0625 C31 14 31 14 31.6953125 17.453125 C32.69160245 21.21637672 32.69160245 21.21637672 36.01953125 23.07421875 C37.2713213 23.64054054 38.53688762 24.17709649 39.8125 24.6875 C40.48321533 24.97584717 41.15393066 25.26419434 41.8449707 25.5612793 C56.51996375 31.72044747 70.89839857 34.19463978 86.75 34.625 C88.52890625 34.68300781 88.52890625 34.68300781 90.34375 34.7421875 C93.22902375 34.83526085 96.11431021 34.92108941 99 35 C99.99 37.475 99.99 37.475 101 40 C98.90758965 42.47634168 97.6904361 43.85927079 94.46069336 44.51757812 C93.0396228 44.5243457 93.0396228 44.5243457 91.58984375 44.53125 C90.52685059 44.53946777 89.46385742 44.54768555 88.36865234 44.55615234 C87.23637207 44.53762207 86.1040918 44.5190918 84.9375 44.5 C83.7717041 44.48791504 82.6059082 44.47583008 81.40478516 44.46337891 C63.82528609 44.06521592 46.82386924 39.8513549 31.25 31.5625 C27.70485516 29.85810344 27.46370815 29.92854164 24 31 C19.60028864 31.48885682 17.54677937 31.31981435 13.6875 29.0625 C11.20441657 26.76645403 10.67864518 25.12422444 10.25 21.8125 C9.35944605 15.96028832 5.47597812 13.05822441 1.21484375 9.26171875 C-0.95823822 7.04264563 -1.892134 6.07735367 -2 3 C-1.34 2.01 -0.68 1.02 0 0 Z " fill="#78D4F1" transform="translate(41,191)"/>
<path d="M0 0 C5.3390906 3.79896831 8.77481739 7.741232 10.25 14.3125 C10.97782081 20.62028035 9.31961247 25.84840977 6.25 31.3125 C2.12290344 36.17907634 -2.46814521 38.80123376 -8.84375 39.5625 C-15.52379664 39.92852995 -20.51633518 38.20917536 -25.51171875 33.734375 C-29.63974068 29.29650154 -31.65036077 25.11124564 -31.8125 18.9296875 C-31.50662301 12.67832656 -29.8418524 8.07713676 -25.75 3.3125 C-18.17382648 -2.94607813 -8.82878162 -4.58712784 0 0 Z M-17.75 8.3125 C-20.69538792 11.0253573 -21.63303593 12.88363174 -22.6875 16.75 C-22.77366199 21.66123355 -21.38701106 24.55422886 -18.0625 28.125 C-14.70498673 29.84912844 -11.49063751 30.54313661 -7.75 30.3125 C-3.97476945 28.53173087 -2.1736485 26.92747364 0.1875 23.5 C1.50231648 19.55555056 1.34114779 17.31337524 0.25 13.3125 C-1.82447603 9.72206072 -3.24467614 8.53179148 -7.0625 6.875 C-11.38173061 6.21613431 -13.74947687 6.57642393 -17.75 8.3125 Z " fill="#5BCBEE" transform="translate(135.75,102.6875)"/>
<path d="M0 0 C1.375 1.8125 1.375 1.8125 2 4 C1.48828125 5.96484375 1.48828125 5.96484375 0 8 C-2.41517527 9.08399975 -4.6827648 9.94227644 -7.1875 10.75 C-19.214756 14.95278731 -30.35220551 20.56040076 -40 29 C-40.85464844 29.74636719 -41.70929687 30.49273437 -42.58984375 31.26171875 C-46.15494046 34.42894858 -49.6483889 37.55421631 -52.8125 41.125 C-55 43 -55 43 -57.75 42.875 C-60 42 -60 42 -61 41 C-61.39857418 37.86526791 -61.25413918 36.39398296 -59.5234375 33.7109375 C-49.54153722 22.85788956 -16.02607245 -8.01303622 0 0 Z " fill="#83D8F3" transform="translate(98,12)"/>
<path d="M0 0 C1 1 1 1 1.0625 4.625 C-1.41779235 24.59453329 -20.9442744 43.02431049 -35.39453125 55.55078125 C-38.70379994 57.39146893 -40.41975453 56.97738088 -44 56 C-44.70654297 53.72509766 -44.70654297 53.72509766 -45 51 C-43.69580078 49.13818359 -43.69580078 49.13818359 -41.6953125 47.3984375 C-40.97085938 46.74939453 -40.24640625 46.10035156 -39.5 45.43164062 C-38.71625 44.75294922 -37.9325 44.07425781 -37.125 43.375 C-35.54009552 41.93949225 -33.95933376 40.49939696 -32.3828125 39.0546875 C-31.62000977 38.35698242 -30.85720703 37.65927734 -30.07128906 36.94042969 C-20.47367023 27.94916679 -13.31611317 16.23055575 -8.3671875 4.078125 C-6.3722859 -0.41325346 -4.62912187 -0.23739087 0 0 Z " fill="#22B9E8" transform="translate(230,157)"/>
<path d="M0 0 C3.57851753 1.23254294 6.08734103 3.34372827 8.88671875 5.8046875 C9.45551758 6.29864014 10.02431641 6.79259277 10.61035156 7.30151367 C18.40333557 14.18648173 25.10767291 21.6599148 30.88671875 30.3046875 C31.28600586 30.88774658 31.68529297 31.47080566 32.09667969 32.0715332 C33.85894608 34.82815325 34.73110634 36.47325734 34.5 39.78125 C33.69921875 41.9296875 33.69921875 41.9296875 32.69921875 42.9296875 C30.50390625 43.4609375 30.50390625 43.4609375 27.69921875 42.9296875 C25.38513012 40.6903495 23.64442604 38.07564595 21.82421875 35.4296875 C20.75714156 33.94782473 19.68814997 32.46733851 18.6171875 30.98828125 C17.85607666 29.92456299 17.85607666 29.92456299 17.07958984 28.83935547 C12.22089912 22.11762239 6.65659407 17.04270015 0.15234375 11.91015625 C-5.20485947 7.58515302 -5.20485947 7.58515302 -5.67578125 4.3671875 C-5.55203125 3.5628125 -5.42828125 2.7584375 -5.30078125 1.9296875 C-2.30078125 -0.0703125 -2.30078125 -0.0703125 0 0 Z " fill="#25BBE9" transform="translate(189.30078125,27.0703125)"/>
<path d="M0 0 C0.78375 0.04125 1.5675 0.0825 2.375 0.125 C8.92909575 11.04849292 10.81667964 27.57895452 9.375 40.125 C8.0234375 42.0234375 8.0234375 42.0234375 6.375 43.125 C3.75 42.9375 3.75 42.9375 1.375 42.125 C0.26867722 39.91235443 0.13973395 38.43238471 -0.0546875 35.9765625 C-0.1263916 35.14141113 -0.1980957 34.30625977 -0.27197266 33.44580078 C-0.34722168 32.55618652 -0.4224707 31.66657227 -0.5 30.75 C-1.12497151 23.83586748 -2.02734627 17.30533662 -4.0390625 10.6328125 C-4.72652985 7.69045226 -4.85148476 5.13640852 -4.625 2.125 C-2.625 0.125 -2.625 0.125 0 0 Z " fill="#13B5E7" transform="translate(229.625,82.875)"/>
<path d="M0 0 C2.375 0.75 2.375 0.75 3.375 1.75 C3.34364639 5.43404916 2.81131692 9.09584579 2.375 12.75 C2.28734375 13.51989258 2.1996875 14.28978516 2.109375 15.08300781 C1.80764414 17.64275747 1.47020457 20.19577629 1.125 22.75 C1.02799805 23.58708496 0.93099609 24.42416992 0.83105469 25.28662109 C-0.03488556 31.28356224 -0.03488556 31.28356224 -3.234375 33.8125 C-4.02328125 34.121875 -4.8121875 34.43125 -5.625 34.75 C-7.62890625 33.7109375 -7.62890625 33.7109375 -9.625 31.75 C-9.84512119 29.10234508 -9.82730933 26.98120084 -9.5625 24.375 C-9.50304199 23.66835205 -9.44358398 22.9617041 -9.38232422 22.23364258 C-7.80113091 5.58251822 -7.80113091 5.58251822 -4.1875 0.87890625 C-2.625 -0.25 -2.625 -0.25 0 0 Z " fill="#A4E2F6" transform="translate(20.625,86.25)"/>
</svg>
